<?xml version="1.0" encoding="UTF-8"?>
<svg id="Layer_1" data-name="Layer 1" xmlns="http://www.w3.org/2000/svg" viewBox="0 0 612.89 511.94">
  <defs>
    <style>
      .cls-1 {
        fill: #faa52f;
      }

      .cls-1, .cls-2, .cls-3, .cls-4, .cls-5, .cls-6, .cls-7, .cls-8, .cls-9, .cls-10, .cls-11, .cls-12, .cls-13, .cls-14 {
        stroke-width: 0px;
      }

      .cls-2 {
        fill: #f9a52f;
      }

      .cls-3 {
        fill: #f9a330;
      }

      .cls-4 {
        fill: #343e40;
      }

      .cls-5 {
        fill: #3c494a;
      }

      .cls-6 {
        fill: #3e4a49;
      }

      .cls-7 {
        fill: #3f4b49;
      }

      .cls-8 {
        fill: #424d48;
      }

      .cls-9 {
        fill: #d9d9d9;
      }

      .cls-10 {
        fill: #333e40;
      }

      .cls-11 {
        fill: #fecd1c;
      }

      .cls-12 {
        fill: #efefef;
      }

      .cls-13 {
        fill: #ffce1c;
      }

      .cls-14 {
        fill: #f0f0f0;
      }
    </style>
  </defs>
  <path class="cls-13" d="M516.71,200.44c11.96,11.68,21.24,25.19,28.31,40.36,6.88,14.75,11.48,30.06,13.49,46.45.36.19.36.69.08,1.19-.89,3.56-1.46,6.63-2.12,9.69-8.27,38.21-28.69,68.81-58.91,93.04-25.89,20.75-55.42,34.37-87.43,42.58-11.64,2.99-23.54,5-35.67,7.45-1.73-.31-3.11-.62-4.76-1.17-2.31-.94-4.36-1.63-6.4-2.34-93.12-32.48-126.01-149.3-63.51-225.58,28.84-35.2,80.07-45.57,120.2-23.86,8.67,4.69,16.42,11.11,24.77,16.86-.19.13.11-.02.36-.24,21.24-18.71,42.95-20.9,67.3-6.83.69.4,1.67.28,2.51.41,0,0-.06,0-.22.34.3.45.76.56,1.23.68,0,0-.07,0-.21.24.23.41.61.58.98.74M435.84,326.21c12.16,2.81,22.76-.04,31.54-8.96,3.28-3.33,3.24-7.63.33-10.77-2.79-3.01-7.17-3.18-10.79-.41-10.09,7.72-15.41,7.77-25.31.23-3.89-2.96-8.35-2.82-11.17.36-2.77,3.13-2.64,8.02,1.22,11.03,4.12,3.2,8.93,5.52,14.18,8.53M520.23,292.45c-6.27-1.6-10.32.82-10.88,7.06-.4,4.44-.31,8.97.1,13.41.43,4.59,3.92,7.53,7.89,7.38,4.03-.16,7.16-3.32,7.41-7.95.22-4.14.51-8.37-.12-12.42-.39-2.5-2.44-4.74-4.4-7.47M363.9,297.66c-.07,4.83-.29,9.66-.16,14.48.13,4.9,3.4,8.2,7.64,8.16,4.26-.05,7.35-3.35,7.54-8.32.14-3.66,0-7.33.05-10.99.06-4.21-1.19-7.62-5.65-8.85-4.42-1.22-7.36.77-9.42,5.52Z"/>
  <path class="cls-3" d="M558.87,318.97c-1.66,7.69-3.11,14.97-5.03,22.13-5.51,20.54-15.34,38.87-29.2,54.95-4.82,5.59-10.37,10.55-16.12,16.14-.89,1-1.26,1.65-1.62,2.3,0,0-.02-.06-.37-.25-.78.62-1.2,1.44-1.63,2.25,0,0-.03-.06-.27-.36-4.4,2.41-8.52,5.18-12.72,7.84-21.04,13.31-44.15,20.48-68.85,22.22-16.29,1.14-32.49-.19-48.25-5,11.78-2.46,23.67-4.47,35.32-7.45,32.01-8.21,61.54-21.82,87.43-42.58,30.23-24.23,50.65-54.83,58.91-93.04.66-3.05,1.23-6.12,2.12-9.44.28,9.77.28,19.79.28,30.28Z"/>
  <path class="cls-10" d="M196.32,440.32c-10.09-6.4-20.63-12.21-30.19-19.34-17.64-13.16-32.58-29.05-44.12-47.93-8.58-14.04-14.77-29.11-17.96-45.25-.69-3.52-2.11-4.53-5.02-5.43-15.7-4.87-31.36-9.89-47.03-14.9-1.52-.48-2.96-1.21-4.79-1.93-.36-1.82-.36-3.53-.36-5.68,11.08-4.09,22.13-7.81,33.23-11.39,7.61-2.45,15.29-4.71,23.34-6.68.15,2.15-.57,4.01-.29,5.71,2.24,13.58,5.52,26.86,11.44,39.39,10.14,21.47,24.96,39.35,42.47,55.08,3.93,3.53,8.73,6.08,13.11,9.12-.01.04-.08.09-.08.34.21.5.43.75.84,1.23.53.75.87,1.26,1.22,2,.15.54.38.73.71.79,0-.01-.02-.02-.01.36,5.29,10.84,10.48,21.35,15.89,31.74,2.28,4.38,5.03,8.52,7.57,12.76Z"/>
  <path class="cls-5" d="M514.82,198.11c-.74.2-1.72.31-2.41-.09-24.34-14.07-46.06-11.88-67.3,6.83-.25.22-.55.37-.36.24-8.35-5.75-16.1-12.17-24.77-16.86-40.13-21.72-91.36-11.35-120.2,23.86-62.5,76.28-29.61,193.1,63.51,225.58,2.04.71,4.09,1.4,6.13,2.66-12.51,1.41-25.01,2.5-37.53,2.99-6.42.25-12.89-.4-19.31-.93-7.06-.58-14.18-1.06-21.14-2.35-12.81-2.37-25.51-5.32-38.28-7.93-1.06-.22-2.29.38-3.7.44-.91-1.17-1.57-2.17-2.35-3.52-29.3-49.08-40.39-101.65-33.33-157.99,5.13-40.98,20.07-78.12,44.48-111.4,5.59-7.62,11.75-14.82,17.61-22.22-.03,0-.03.05.24.04.47-.31.68-.6,1.14-.96.74-.3,1.21-.53,2.12-.76,5.78-.84,11.11-1.68,16.88-2.46,21.2-.5,41.97-1.06,62.74-1.64,1.64-.05,3.28-.24,4.91-.36,3.95.7,7.88,1.46,11.84,2.09,8.73,1.39,17.48,2.71,26.85,4.31,5.88,1.74,11.13,3.23,16.37,4.72,8.8,2.98,17.7,5.69,26.35,9.04,6.43,2.49,12.54,5.8,19.29,9.13,5.7,3.21,10.9,6.03,16.1,8.86,6.9,5.3,13.95,10.44,20.67,15.97,4.68,3.85,8.91,8.24,13.44,12.72Z"/>
  <path class="cls-14" d="M163.4,185.67c-18.77-10.61-30.75-26.5-36-47.29-5.71-22.61-3.25-44.17,10.38-63.59,11.46-16.33,27.19-25.55,47.33-27.43,22.25-2.08,40.5,6.09,56.06,21.1,4.34,4.19,7.44,9.67,11.4,15.14,2.96,7.67,6.14,14.62,8.19,21.89,3.14,11.14,2.6,22.58.78,34.15-12.08,3.87-23.83,7.55-35.6,10.8-6.83-25.84-17.56-49.13-36.52-67.96-3.79-3.77-8.04-4.01-11.29-.71-3.16,3.2-2.88,7.09.59,11.07,2.94,3.37,5.94,6.72,8.54,10.35,11.65,16.25,19.77,34.17,24.52,53.77-5.82,3.3-11.4,6.34-17.34,9.43-6.74,3.91-13.15,7.72-19.48,11.66-3.91,2.44-7.7,5.08-11.54,7.63Z"/>
  <path class="cls-9" d="M261.86,139.44c1.49-11.39,2.03-22.83-1.11-33.96-2.05-7.27-5.23-14.22-7.92-21.69,3.77-7.64,6.65-15.61,11.56-22.01,9.84-12.83,23.33-20.93,39.44-23,16.99-2.19,32.53,2.05,45.68,13.75,14.62,13.01,20.74,29.68,20.93,48.69.1,10.14-2.48,19.96-6.49,29.7-1.67.49-3.3.68-4.94.73-20.77.58-41.55,1.14-62.74,1.24-.31-1.61-.41-2.84-.05-3.91,6.18-18.18,13.99-35.47,27.34-49.71,3.03-3.23,3.14-8.52.3-11.14-2.92-2.69-8.98-2.15-11.75.89-10.93,12.02-19.67,25.45-25.25,40.72-3.1,8.5-5.3,17.33-7.9,26.01-.47.23-.95.47-1.99.77-.75.37-.93.67-1.11.97,0,0,0-.05-.38-.2-4.79.63-9.2,1.39-13.6,2.16Z"/>
  <path class="cls-5" d="M163.17,185.94c4.07-2.82,7.86-5.46,11.77-7.9,6.33-3.95,12.74-7.76,19.55-11.31-5.03,9.81-11.11,19.01-15.86,28.85-24.48,50.67-30.93,103.69-19.08,158.7,2.68,12.44,7.05,24.52,10.64,36.77-4.4-3-9.2-5.55-13.13-9.08-17.52-15.73-32.33-33.6-42.47-55.08-5.92-12.53-9.2-25.81-11.44-39.39-.28-1.7.44-3.56.69-5.76,2.67-10.35,4.46-20.63,8.19-30.15,9.51-24.25,26.27-43.42,45.12-60.89,1.78-1.65,3.85-3,6.02-4.76Z"/>
  <path class="cls-10" d="M480.79,169c-5.27-2.4-10.47-5.22-15.82-8.36.86-5.87,1.8-11.44,2.91-16.97,3.27-16.36,7.96-32.21,17.29-46.73,3.57,4.71,8.28,7.22,13.71,8.65-10.92,19.59-15.8,40.91-18.09,63.41Z"/>
  <path class="cls-10" d="M419.08,142.02c-5.34-1.1-10.59-2.59-16.05-4.38,1.27-6.55,2.21-13,4.36-19,4.23-11.78,9.14-23.32,14.35-34.9,4.77,2.99,8.97,5.91,13.16,8.83-3.71,9.77-7.74,19.45-11.03,29.36-2.12,6.38-3.17,13.13-4.79,20.1Z"/>
  <path class="cls-13" d="M483.8,81.35c3.31-9.21,9.29-13.28,18.96-12.91,7.44.28,13.92,5.59,15.89,13.78-4.02,9.5-10.79,13.41-20.35,12.18-7.73-1-12.37-5.69-14.5-13.05Z"/>
  <path class="cls-13" d="M420.04,69.48c1.24-7.7,8.35-12.93,15.68-13.91,7.06-.94,14.41,1.74,18.23,9.26.66,1.3,1.25,2.62,1.57,4.51-6.86,14.68-23.67,16.08-31.92,5.32-1.27-1.66-2.38-3.45-3.56-5.18Z"/>
  <path class="cls-1" d="M419.97,69.87c1.25,1.34,2.36,3.13,3.63,4.79,8.25,10.76,25.06,9.37,31.86-4.95,4.48,10.35-4.81,23.06-16.21,22.74-1.15-.03-2.3,0-3.9.07-4.64-2.87-8.83-5.8-13.28-8.94-2.31-4.38-3.71-8.63-2.1-13.7Z"/>
  <path class="cls-2" d="M483.45,81.6c2.47,7.11,7.11,11.8,14.85,12.8,9.56,1.23,16.33-2.68,20.4-11.8,4.17,12.19-4.64,22.75-19.38,22.93-5.87-1.36-10.58-3.87-13.99-8.91-.94-5.02-1.58-9.89-1.87-15.02Z"/>
  <path class="cls-5" d="M515.87,199.18c-.4.16-.86.05-1.16-.43.47-.19.79-.02,1.16.43Z"/>
  <path class="cls-5" d="M516.74,200.17c-.41.11-.78-.06-1.01-.5.44-.11.74.06,1.01.5Z"/>
  <path class="cls-4" d="M249.73,432.72c1.15-.22,2.38-.81,3.44-.6,12.77,2.6,25.47,5.56,38.28,7.93,6.95,1.29,14.07,1.77,21.14,2.35,6.42.53,12.89,1.19,19.31.93,12.52-.49,25.02-1.59,37.8-2.75,1.65-.01,3.03.3,4.76.61,16.11,4.81,32.31,6.14,48.6,5,24.7-1.73,47.81-8.9,68.85-22.22,4.19-2.65,8.32-5.42,12.74-7.82-9.06,7.31-17.99,14.92-27.8,21.15-23.55,14.97-49.28,24.93-76.71,30.04-14.23,2.65-28.63,4.67-43.04,5.93-13.01,1.13-26.19,1.61-39.22.94-13.16-.68-26.22-3.12-39.89-5.15-9.8-12.35-19.03-24.35-28.26-36.35Z"/>
  <path class="cls-7" d="M435.46,326.05c-4.88-2.86-9.69-5.17-13.81-8.37-3.86-3.01-3.99-7.9-1.22-11.03,2.82-3.18,7.28-3.33,11.17-.36,9.9,7.54,15.22,7.49,25.31-.23,3.62-2.76,8-2.6,10.79.41,2.9,3.14,2.94,7.44-.33,10.77-8.78,8.92-19.38,11.77-31.91,8.81Z"/>
  <path class="cls-8" d="M520.56,292.63c1.63,2.54,3.68,4.79,4.07,7.29.63,4.05.34,8.28.12,12.42-.25,4.62-3.38,7.79-7.41,7.95-3.96.16-7.46-2.78-7.89-7.38-.41-4.44-.5-8.97-.1-13.41.56-6.23,4.61-8.66,11.21-6.87Z"/>
  <path class="cls-6" d="M363.98,297.24c1.97-4.34,4.91-6.33,9.33-5.11,4.46,1.23,5.71,4.64,5.65,8.85-.05,3.66.09,7.33-.05,10.99-.19,4.97-3.28,8.27-7.54,8.32-4.25.04-7.51-3.25-7.64-8.16-.13-4.82.09-9.65.25-14.89Z"/>
  <path class="cls-3" d="M249.47,432.55c9.49,12.16,18.72,24.16,28.08,36.44-20.27-3.83-40.24-9.45-59.39-17.65-7.3-3.13-14.28-7.01-21.63-10.79-2.75-4.48-5.51-8.62-7.79-13-5.41-10.4-10.6-20.91-15.53-31.72,1.26.05,2.27.3,3.06.87,15.35,11.01,32.18,19.29,49.69,26.14,6.89,2.7,14.17,4.38,21.28,6.53.66,1,1.31,2.01,2.23,3.18Z"/>
  <path class="cls-4" d="M507.18,414.41c.08-.57.44-1.22,1.16-1.92-.05.58-.46,1.21-1.16,1.92Z"/>
  <path class="cls-4" d="M505.19,416.41c.14-.73.56-1.54,1.37-2.16-.11.83-.59,1.45-1.37,2.16Z"/>
  <path class="cls-11" d="M247.12,429.04c-6.98-1.81-14.26-3.49-21.15-6.19-17.51-6.85-34.33-15.13-49.69-26.14-.79-.57-1.81-.82-3.07-1.24-.36-.02-.33-.02-.38-.23-.18-.49-.39-.69-.68-.81-.34-.51-.68-1.01-1.21-2.02-.4-.74-.62-.99-.84-1.23,0,0,.06-.05.08-.09-3.58-12.28-7.94-24.36-10.62-36.81-11.86-55.02-5.4-108.04,19.08-158.7,4.75-9.84,10.83-19.04,16.22-28.89,5.51-3.41,11.09-6.45,17.27-9.83,5.01-2.22,9.42-4.11,13.83-5.99,11.75-3.68,23.5-7.36,35.58-11.24,4.73-.96,9.14-1.72,13.96-2.35-5.48,7.54-11.64,14.74-17.23,22.36-24.41,33.28-39.35,70.42-44.48,111.4-7.06,56.34,4.03,108.91,33.33,157.99Z"/>
  <path class="cls-5" d="M170.1,391.43c.22-.01.44.23.65.73-.22.01-.44-.23-.65-.73Z"/>
  <path class="cls-3" d="M172.16,394.66c.28-.11.49.09.66.59-.29.14-.52-.05-.66-.59Z"/>
  <path class="cls-12" d="M279.38,135.74c2.17-8.68,4.36-17.51,7.47-26.01,5.58-15.27,14.32-28.7,25.25-40.72,2.77-3.04,8.83-3.58,11.75-.89,2.84,2.62,2.73,7.91-.3,11.14-13.35,14.24-21.16,31.53-27.34,49.71-.36,1.07-.26,2.29-.37,3.85-5.34,1.24-10.68,2.08-16.46,2.92Z"/>
  <path class="cls-11" d="M276.12,137.46c-.09-.28.09-.58.57-.89.1.29-.1.58-.57.89Z"/>
  <path class="cls-9" d="M225.94,150.43c-4.39,2.32-8.8,4.21-13.58,6.18-5.35-19.27-13.47-37.18-25.11-53.44-2.6-3.63-5.6-6.98-8.54-10.35-3.47-3.98-3.75-7.86-.59-11.07,3.26-3.3,7.5-3.06,11.29.71,18.97,18.83,29.69,42.12,36.52,67.96Z"/>
</svg>